<svg id="Layer_1" height="512" viewBox="0 0 512 512" width="512" xmlns="http://www.w3.org/2000/svg" xmlns:xlink="http://www.w3.org/1999/xlink" data-name="Layer 1"><linearGradient id="GradientFill_1" gradientUnits="userSpaceOnUse" x1="256" x2="256" y1="512"><stop offset="0" stop-color="#6c54a3"/><stop offset="1" stop-color="#00b1d2"/></linearGradient><path d="m256 0c141.385 0 256 114.615 256 256s-114.615 256-256 256-256-114.615-256-256 114.615-256 256-256zm-108.042 97.973-1.638 1.118.479 1.924a351.409 351.409 0 0 0 30.891 80.246l1.948 3.66 10.175-11.7a9.462 9.462 0 0 0 1.724-9.994l-24.919-63.473a9.232 9.232 0 0 0 -6.154-5.754 10.257 10.257 0 0 0 -3.1-.5 9.364 9.364 0 0 0 -5.256 1.676q-2.087 1.381-4.152 2.8zm74.423 191.644a282.866 282.866 0 0 1 -53.46-74.014 19.508 19.508 0 0 1 -1.054-14.845l.4-1.2-.626-1.1a370.211 370.211 0 0 1 -35.1-84.416l-1.136-4.122-3.369 2.633c-8.509 6.652-16.825 13.677-24.646 21.13a30.95 30.95 0 0 0 -9.6 27.116c15.276 117.232 140.188 242.131 257.415 257.416a30.935 30.935 0 0 0 27.118-9.593c7.446-7.82 14.466-16.131 21.118-24.635l2.635-3.368-4.123-1.136a370.5 370.5 0 0 1 -84.417-35.113l-1.1-.627-1.2.4a19.489 19.489 0 0 1 -14.839-1.059 282.827 282.827 0 0 1 -74.01-53.461zm126.39 30.845a9.453 9.453 0 0 0 -9.99 1.729l-11.692 10.17 3.66 1.948a351.587 351.587 0 0 0 80.245 30.891l1.934.481 1.116-1.652c.931-1.378 1.865-2.754 2.783-4.139a9.793 9.793 0 0 0 -4.582-14.51zm68.086-194.268 1.642-.769v-17.388h-92.312v83.391h92.313v-17.382l-1.641-.769a26.008 26.008 0 0 1 0-47.083zm-129.605 47.083-1.641.769v17.382h23.467v-83.391h-23.467v17.388l1.642.769a26 26 0 0 1 0 47.083z" fill="url(#GradientFill_1)" fill-rule="evenodd"/></svg>